<svg style="display: none;"  xmlns="http://www.w3.org/2000/svg">
 <symbol id="down" viewBox="0 0 24 24">
    <path fill="#fff" d="M6.984 1.984h10.031l-5.016 5.016z" class="styleDown" id="styleDown"></path>
 </symbol>
  <symbol id="behance" viewBox="0 0 32 32">
    <path fill="#156569ff" d="M9.251 6.004c0.936 0 1.787 0.080 2.56 0.251 0.769 0.173 1.427 0.44 1.98 0.813 0.547 0.373 0.977 0.867 1.28 1.493 0.3 0.627 0.453 1.4 0.453 2.307 0 0.987-0.227 1.813-0.676 2.48-0.451 0.667-1.116 1.2-2.003 1.627 1.208 0.347 2.101 0.96 2.696 1.827 0.597 0.88 0.887 1.933 0.887 3.147 0 1-0.173 1.853-0.547 2.573-0.373 0.733-0.893 1.333-1.547 1.8-0.64 0.464-1.4 0.8-2.227 1.023-0.813 0.22-1.669 0.339-2.547 0.339h-9.561v-19.669h9.251zM22.587 22.22c0.587 0.571 1.431 0.857 2.525 0.857 0.787 0 1.467-0.197 2.040-0.596 0.565-0.387 0.907-0.813 1.040-1.253h3.451c-0.537 1.707-1.397 2.933-2.533 3.667-1.133 0.747-2.512 1.107-4.107 1.107-1.116 0-2.112-0.173-3.029-0.533-0.897-0.36-1.653-0.867-2.293-1.52-0.619-0.653-1.097-1.44-1.436-2.36-0.337-0.92-0.497-1.933-0.497-3.027 0-1.071 0.18-2.053 0.537-2.973 0.36-0.933 0.859-1.707 1.493-2.387 0.66-0.68 1.417-1.193 2.315-1.592s1.867-0.577 2.96-0.577c1.213 0 2.253 0.219 3.173 0.697 0.893 0.453 1.627 1.093 2.213 1.867 0.587 0.781 1 1.68 1.253 2.693 0.253 1 0.333 2.053 0.28 3.173h-10.253c0 1.12 0.373 2.176 0.947 2.753l-0.107 0.040zM8.933 22.287c0.423 0 0.827-0.040 1.208-0.124 0.387-0.080 0.731-0.22 1.017-0.4 0.28-0.18 0.52-0.437 0.693-0.777 0.173-0.32 0.253-0.76 0.253-1.28 0-1-0.293-1.72-0.853-2.16-0.573-0.427-1.32-0.64-2.253-0.64h-4.679v5.4h4.613zM27.076 14.753c-0.469-0.513-1.253-0.789-2.209-0.789-0.624 0-1.14 0.099-1.555 0.317-0.403 0.2-0.733 0.467-0.987 0.787s-0.423 0.64-0.523 1c-0.1 0.347-0.16 0.667-0.18 0.947h6.349c-0.093-1-0.44-1.733-0.907-2.253zM8.693 13.933c0.765 0 1.4-0.179 1.9-0.549 0.499-0.36 0.739-0.96 0.739-1.784 0-0.459-0.093-0.833-0.24-1.128-0.173-0.293-0.4-0.52-0.667-0.683-0.28-0.165-0.6-0.28-0.96-0.343-0.36-0.071-0.747-0.099-1.12-0.099h-4.039v4.587zM20.824 7.323h7.957v1.939h-7.957v-1.955z"></path>
 </symbol>
  <symbol id="dribbble" viewBox="0 0 32 32">
    <path fill="#ea4c89" d="M16 32c-8.82 0-16-7.18-16-16s7.18-16 16-16 16 7.18 16 16-7.18 16-16 16zM29.493 18.189c-0.467-0.147-4.227-1.271-8.512-0.584 1.787 4.912 2.516 8.912 2.656 9.744 3.067-2.073 5.248-5.36 5.856-9.16zM21.34 28.6c-0.204-1.2-1-5.376-2.92-10.36l-0.088 0.027c-7.72 2.687-10.48 8.033-10.72 8.533 2.307 1.811 5.227 2.888 8.387 2.888 1.893 0 3.693-0.387 5.341-1.088zM5.847 25.16c0.309-0.533 4.060-6.74 11.109-9.020 0.18-0.060 0.36-0.112 0.54-0.16-0.347-0.78-0.72-1.556-1.109-2.32-6.827 2.040-13.445 1.953-14.045 1.94l-0.005 0.416c0 3.511 1.331 6.716 3.511 9.144zM2.62 13.22c0.613 0.011 6.244 0.035 12.636-1.664-2.264-4.024-4.707-7.411-5.067-7.904-3.824 1.8-6.68 5.32-7.569 9.568zM12.8 2.736c0.376 0.507 2.86 3.885 5.096 8 4.86-1.82 6.92-4.587 7.164-4.936-2.413-2.147-5.587-3.448-9.060-3.448-1.1 0-2.173 0.133-3.2 0.384zM26.58 7.38c-0.291 0.387-2.58 3.324-7.632 5.387 0.32 0.653 0.627 1.313 0.907 1.981 0.107 0.24 0.2 0.48 0.293 0.707 4.547-0.573 9.067 0.347 9.52 0.44-0.027-3.227-1.173-6.187-3.088-8.515z"></path>
 </symbol>
  <symbol id="facebook" viewBox="0 0 32 32">
    <path fill="#1877f2" d="M31.997 15.999c0-8.836-7.163-15.999-15.999-15.999s-15.999 7.163-15.999 15.999c0 7.985 5.851 14.604 13.499 15.804v-11.18h-4.062v-4.625h4.062v-3.525c0-4.010 2.389-6.225 6.043-6.225 1.75 0 3.581 0.313 3.581 0.313v3.937h-2.017c-1.987 0-2.607 1.233-2.607 2.498v3.001h4.437l-0.709 4.625h-3.728v11.18c7.649-1.2 13.499-7.819 13.499-15.804z"></path>
 </symbol>
  <symbol id="flickr" viewBox="0 0 32 32">
    <path fill="#0063dc" d="M0 16c0 4.099 3.325 7.419 7.42 7.419 4.1 0 7.425-3.32 7.425-7.419s-3.324-7.419-7.425-7.419c-4.093 0-7.42 3.32-7.42 7.419zM17.155 16c0 4.099 3.324 7.419 7.423 7.419 4.084 0 7.423-3.32 7.423-7.419s-3.323-7.419-7.419-7.419c-4.1 0-7.427 3.32-7.427 7.419z"></path>
 </symbol>
  <symbol id="gauges" viewBox="0 0 32 32">
    <path fill="#2fa66a" d="M16.8 16.847l-1.5-0.071c-1.26-0.044-1.596-0.111-1.596-0.58 0-0.18 0.133-0.424 0.404-0.56 0.223 0.048 0.449 0.071 0.676 0.071 3.22 0 4.84-1.56 4.84-3.973 0-0.4-0.099-0.76-0.3-0.98h1.28v-2.68h-3.804c-0.629-0.153-1.189-0.267-1.953-0.267-3.391 0-5.072 1.965-5.072 4.24 0 1.427 0.675 2.453 1.68 2.989-0.779 0.312-1.363 1.16-1.363 2.053 0 0.781 0.429 1.405 1.080 1.716-0.853 0.448-1.62 1.54-1.62 2.587 0 2.213 1.8 3.301 4.853 3.301 3.831 0 6.26-2.139 6.26-4.547h-0.024c0-2.232-1.437-3.213-3.841-3.3zM14.851 10.473c1.193 0 1.789 0.64 1.789 1.591 0 0.947-0.667 1.52-1.767 1.52-1.191 0-1.789-0.593-1.789-1.564 0-0.907 0.644-1.547 1.767-1.547zM17.528 20.545c0 0.84-0.816 1.484-2.427 1.484-1.259 0-2-0.54-2-1.336 0-0.471 0.301-0.944 0.8-1.329 0.12 0.020 0.301 0 0.44 0.020l1.8 0.043c1.061 0.044 1.44 0.517 1.44 1.12zM23.516 14.472v0.003c-1.32 0-2.432 1.112-2.432 2.46 0 1.347 1.112 2.431 2.432 2.431 1.347 0 2.461-1.085 2.461-2.432s-1.116-2.461-2.461-2.461zM16 0c-8.836 0-16 7.164-16 16s7.164 16 16 16 16-7.164 16-16-7.164-16-16-16zM16 29.78c-7.609 0-13.78-6.169-13.78-13.78 0-7.609 6.171-13.78 13.78-13.78 7.611 0 13.78 6.171 13.78 13.78 0 7.611-6.169 13.78-13.78 13.78z"></path>
 </symbol>
<symbol id="pinterest" viewBox="0 0 32 32">
    <path fill="#bd081c" d="M16.023 0c-8.828 0-15.984 7.156-15.984 15.983 0 6.772 4.211 12.556 10.157 14.883-0.14-1.265-0.265-3.204 0.055-4.585 0.292-1.249 1.875-7.943 1.875-7.943s-0.479-0.96-0.479-2.375c0-2.217 1.289-3.881 2.891-3.881 1.365 0 2.024 1.025 2.024 2.251 0 1.372-0.871 3.423-1.323 5.323-0.38 1.591 0.8 2.887 2.367 2.887 2.837 0 5.024-2.993 5.024-7.316 0-3.815-2.751-6.492-6.677-6.492-4.547 0-7.212 3.416-7.212 6.932 0 1.377 0.525 2.857 1.185 3.655 0.132 0.16 0.149 0.3 0.113 0.46-0.12 0.5-0.391 1.599-0.445 1.817-0.071 0.3-0.229 0.361-0.535 0.22-1.993-0.92-3.244-3.837-3.244-6.195 0-5.035 3.664-9.669 10.56-9.669 5.544 0 9.856 3.956 9.856 9.231 0 5.513-3.476 9.949-8.311 9.949-1.619 0-3.139-0.839-3.677-1.839l-0.999 3.797c-0.359 1.393-1.339 3.136-1.997 4.195 1.497 0.46 3.075 0.713 4.733 0.713 8.809 0 15.98-7.153 15.98-15.983 0-8.831-7.171-15.983-15.98-15.983z"></path>
</symbol>
 <symbol id="twitter" viewBox="0 0 32 32">
    <path fill="#1da1f2" d="M31.939 6.092c-1.18 0.519-2.44 0.872-3.767 1.033 1.352-0.815 2.392-2.099 2.884-3.631-1.268 0.74-2.673 1.279-4.169 1.579-1.195-1.279-2.897-2.079-4.788-2.079-3.623 0-6.56 2.937-6.56 6.556 0 0.52 0.060 1.020 0.169 1.499-5.453-0.257-10.287-2.876-13.521-6.835-0.569 0.963-0.888 2.081-0.888 3.3 0 2.28 1.16 4.284 2.917 5.461-1.076-0.035-2.088-0.331-2.971-0.821v0.081c0 3.18 2.257 5.832 5.261 6.436-0.551 0.148-1.132 0.228-1.728 0.228-0.419 0-0.82-0.040-1.221-0.115 0.841 2.604 3.26 4.503 6.139 4.556-2.24 1.759-5.079 2.807-8.136 2.807-0.52 0-1.039-0.031-1.56-0.089 2.919 1.859 6.357 2.945 10.076 2.945 12.072 0 18.665-9.995 18.665-18.648 0-0.279 0-0.56-0.020-0.84 1.281-0.919 2.4-2.080 3.28-3.397z"></path>
 </symbol>
</svg>